<svg height="512" viewBox="0 0 512 512" width="512" xmlns="http://www.w3.org/2000/svg">
    <path clip-rule="evenodd" d="M236.735 269.37c-12.242-11.327-25.835-27.208-31.73-41.262-.905-1.812-2.716-6.35 0-9.975 5.442-7.257 6.348-7.71 12.235-14.514 4.083-4.993 7.253-9.523 5.895-13.61l-20.394-53.056c-1.818-3.632-7.252-4.085-13.6-4.538-5.442 0-11.328 0-15.412.906-9.064 3.18-27.646 27.67-29.91 45.354-4.99 38.542 29.91 89.787 64.81 121.533 34.907 32.2 88.843 62.587 126.912 53.963 17.676-4.078 40.35-24.482 42.16-34.013.906-4.077.453-9.968-.453-15.42-.452-6.343-1.812-10.874-5.45-12.687l-46.22-21.325c-4.09-2.266-8.166-.453-12.242 4.546-4.98 6.796-7.26 9.515-13.148 16.78-3.17 4.077-5.434 6.796-9.057 7.25-4.09.904-9.525-1.36-10.43-1.36-14.507-4.983-31.278-17.23-43.965-28.574zM84.44 432.18l26.29-66.664c-29.014-33.56-46.69-77.554-46.69-125.62 0-106.114 86.117-191.83 192.19-191.83 106.06 0 191.722 85.716 191.722 191.83 0 106.12-85.663 192.284-191.722 192.284-42.613 0-81.597-13.608-113.318-37.184l-58.47 37.185zM52.26 366.876L16 512l129.628-58.962c33.09 17.232 70.706 27.216 110.602 27.216 132.338 0 239.77-107.49 239.77-240.357C496 107.48 388.568 0 256.23 0 123.417 0 16 107.48 16 239.896c0 46.707 13.593 90.25 36.258 126.98z" fill="#2A9A84" fill-rule="evenodd"/>
</svg>
