<svg id="Layer_1" data-name="Layer 1" xmlns="http://www.w3.org/2000/svg" viewBox="0 0 512 512"><defs><style>.cls-1{fill:#2a9a84;}</style></defs><title>icon</title><path class="cls-1" d="M236.74,269.37C224.49,258,210.9,242.16,205,228.11c-.91-1.81-2.72-6.35,0-10,5.44-7.26,6.35-7.71,12.23-14.51,4.08-5,7.25-9.52,5.9-13.61L202.74,137c-1.82-3.63-7.25-4.09-13.6-4.54-5.44,0-11.33,0-15.41.91-9.06,3.18-27.65,27.67-29.91,45.35-5,38.54,29.91,89.79,64.81,121.53,34.91,32.2,88.84,62.59,126.91,54,17.68-4.08,40.35-24.48,42.16-34,.91-4.08.45-10-.45-15.42-.45-6.34-1.81-10.87-5.45-12.69l-46.22-21.33c-4.09-2.27-8.17-.45-12.24,4.55-5,6.8-7.26,9.52-13.15,16.78-3.17,4.08-5.43,6.8-9.06,7.25-4.09.9-9.52-1.36-10.43-1.36-14.51-5-31.28-17.23-44-28.57ZM84.44,432.18l26.29-66.67A191.62,191.62,0,0,1,64,239.9C64,133.78,150.16,48.07,256.23,48.07A191.56,191.56,0,0,1,448,239.9C448,346,362.29,432.18,256.23,432.18A188.57,188.57,0,0,1,142.91,395ZM52.26,366.88,16,512l129.63-59a238.93,238.93,0,0,0,110.6,27.22C388.57,480.25,496,372.77,496,239.9,496,107.48,388.57,0,256.23,0,123.42,0,16,107.48,16,239.9a241.45,241.45,0,0,0,36.26,127Z"/></svg>